#!OML:ASF F:\VICON\USERDATA\INSTALL\Justin_Nancy\Justin_Nancy.ASF
:FULLY-SPECIFIED
:DEGREES
365
root -13.5168 17.4536 16.5492 -2.37029 -51.3147 2.49832
lowerback 6.47297 0.705156 -2.09083
upperback 0.466324 0.829947 1.5367
thorax -3.2017 0.448479 2.68747
lowerneck -15.4367 -3.61242 -9.54363
upperneck 22.4545 -4.12467 5.69295
head 10.0148 -2.12951 3.04922
rclavicle 5.91384e-014 -7.95139e-016
rhumerus -31.7664 -17.3592 -77.8262
rradius 28.9491
rwrist 8.22651
rhand -11.9359 16.4644
rfingers 7.12502
rthumb 14.1187 -13.0359
lclavicle 5.91384e-014 -7.95139e-016
lhumerus -32.9889 15.7311 81.7507
lradius 22.3367
lwrist -12.8798
lhand -12.1333 24.8614
lfingers 7.12502
lthumb 13.9286 54.3749
rfemur -12.2018 2.52393 21.248
rtibia 62.7339
rfoot 0.334795 -1.665
rtoes 3.94957
lfemur -14.8095 0.533161 -26.1364
ltibia 26.0435
lfoot -7.60341 2.17327
ltoes 8.05729
366
root -13.6173 17.4451 16.6472 -2.36485 -51.3283 2.41989
lowerback 6.51491 0.70447 -2.04713
upperback 0.558717 0.830069 1.51956
thorax -3.12874 0.445504 2.64502
lowerneck -15.3038 -3.58014 -9.28197
upperneck 22.1644 -4.10938 5.54557
head 9.87516 -2.11393 2.95227
rclavicle -5.03919e-014 -4.77083e-015
rhumerus -31.9604 -17.5154 -77.7298
rradius 28.9263
rwrist 8.04147
rhand -11.8032 16.4917
rfingers 7.12502
rthumb 14.2466 -12.9997
lclavicle -5.03919e-014 -4.77083e-015
lhumerus -32.5236 15.5211 81.763
lradius 22.3642
lwrist -12.6542
lhand -13.2047 24.7596
lfingers 7.12502
lthumb 12.8958 54.3412
rfemur -13.3505 2.50592 21.168
rtibia 63.4183
rfoot -0.913108 -2.38458
rtoes 5.25054
lfemur -14.3763 0.484869 -26.1029
ltibia 26.3737
lfoot -8.31184 2.28736
ltoes 9.259
367
root -13.7099 17.4465 16.7699 -2.04743 -50.0548 2.1041
lowerback 6.29589 0.15513 -1.47686
upperback 0.634885 0.139186 1.47391
thorax -2.88286 0.0902137 2.33873
lowerneck -15.2998 -3.5209 -9.22744
upperneck 21.9534 -4.05352 5.64238
head 9.79487 -2.06919 2.98257
rclavicle -7.0171e-014 -3.18055e-015
rhumerus -31.911 -17.7737 -77.8594
rradius 28.7177
rwrist 7.85962
rhand -12.5665 15.8352
rfingers 7.12502
rthumb 13.5111 -13.7065
lclavicle -7.0171e-014 -3.18055e-015
lhumerus -32.0875 15.4373 81.6852
lradius 22.4574
lwrist -12.3114
lhand -14.2364 24.5316
lfingers 7.12502
lthumb 11.9012 54.1733
rfemur -14.3931 1.11072 21.0847
rtibia 63.7854
rfoot -2.25198 -2.92462
rtoes 5.45523
lfemur -14.1366 -0.524481 -26.0896
ltibia 26.7949
lfoot -8.92884 2.08223
ltoes 9.9855
368
root -13.8081 17.4346 16.8685 -2.03997 -50.1796 2.04256
lowerback 6.37494 0.180516 -1.46093
upperback 0.644557 0.174433 1.52153
thorax -2.91906 0.107944 2.37608
lowerneck -15.2825 -3.53847 -9.18982
upperneck 21.8978 -4.07871 5.6087
head 9.77252 -2.08085 2.96034
rclavicle 9.74045e-015 -1.11319e-014
rhumerus -32.2104 -17.7778 -77.9688
rradius 28.9706
rwrist 6.93223
rhand -13.2745 14.7143
rfingers 7.12502
rthumb 12.8286 -14.8715
lclavicle 9.74045e-015 -1.11319e-014
lhumerus -31.8548 15.1956 81.8006
lradius 22.7223
lwrist -12.1634
lhand -14.9131 24.6248
lfingers 7.12502
lthumb 11.2486 54.3032
rfemur -15.6191 1.1157 21.0615
rtibia 64.0748
rfoot -3.15383 -3.53928
rtoes 4.22699
lfemur -13.7437 -0.408056 -26.111
ltibia 27.0934
lfoot -9.65247 2.22601
ltoes 10.5707
369
root -13.9003 17.4202 16.9596 -2.33043 -50.1149 2.20592
lowerback 6.70397 0.141038 -1.62694
upperback 0.633692 0.108707 1.59822
thorax -3.11157 0.0797265 2.556
lowerneck -15.0236 -3.51767 -9.31599
upperneck 21.7366 -4.01578 5.52516
head 9.66348 -2.0735 2.96025
rclavicle 1.89342e-014 5.56597e-015
rhumerus -32.536 -17.7539 -77.8331
rradius 29.1241
rwrist 6.23667
rhand -13.239 14.4996
rfingers 7.12502
rthumb 12.8628 -15.084
lclavicle 1.89342e-014 5.56597e-015
lhumerus -31.7593 15.4887 81.8398
lradius 23.0195
lwrist -12.5704
lhand -15.6229 24.3364
lfingers 7.12502
lthumb 10.5639 54.0509
rfemur -16.7519 1.10685 20.9025
rtibia 64.2371
rfoot -3.94582 -3.98189
rtoes 3.43176
lfemur -13.2001 -0.333231 -26.2954
ltibia 27.2635
lfoot -10.3445 2.33101
ltoes 12.0897
370
root -13.9956 17.4069 17.0581 -3.1846 -50.0249 3.15045
lowerback 6.88989 0.0331729 -2.24268
upperback 0.659755 -0.0876542 1.47372
thorax -3.1769 -0.00987831 2.79365
lowerneck -14.755 -3.41025 -9.46096
upperneck 21.4826 -3.87141 5.63478
head 9.51683 -2.00712 3.0411
rclavicle 1.14301e-015 7.95139e-016
rhumerus -32.7955 -18.4349 -77.265
rradius 28.6357
rwrist 7.35195
rhand -12.0161 16.4313
rfingers 7.12502
rthumb 14.0415 -13.0744
lclavicle 1.14301e-015 7.95139e-016
lhumerus -31.6759 15.9417 81.6301
lradius 23.4705
lwrist -12.7703
lhand -15.5831 24.3735
lfingers 7.12502
lthumb 10.6023 54.0861
rfemur -17.7369 1.08004 20.0305
rtibia 64.3211
rfoot -4.88132 -4.06924
rtoes 5.46469
lfemur -12.6156 -0.279035 -27.0787
ltibia 27.4395
lfoot -10.9582 2.47205
ltoes 12.3279
371
root -14.0993 17.3993 17.1636 -3.78839 -49.9658 3.92119
lowerback 6.84764 -0.0982873 -2.81046
upperback 0.668734 -0.306946 1.40028
thorax -3.12721 -0.112709 3.05836
lowerneck -15.2079 -3.32737 -9.07645
upperneck 22.0393 -3.70672 5.1164
head 9.76678 -1.95854 2.81887
rclavicle 6.95746e-015 0
rhumerus -32.9628 -17.963 -77.4753
rradius 28.8997
rwrist 6.4892
rhand -12.3431 15.0354
rfingers 7.12502
rthumb 13.7263 -14.4919
lclavicle 6.95746e-015 0
lhumerus -31.5101 16.0568 81.5474
lradius 23.6668
lwrist -12.5601
lhand -15.1762 24.573
lfingers 7.12502
lthumb 10.9948 54.2651
rfemur -18.7169 1.04956 19.2556
rtibia 64.2265
rfoot -8.58777 -2.61367
rtoes -2.24038
lfemur -12.1101 -0.318619 -27.7318
ltibia 27.6322
lfoot -11.5719 2.70062
ltoes 12.1113
372
root -14.1983 17.3837 17.2467 -3.855 -49.7711 4.0141
lowerback 6.93825 -0.191573 -3.01209
upperback 0.704473 -0.448 1.43529
thorax -3.12874 -0.180783 3.2226
lowerneck -15.7888 -3.35841 -8.75789
upperneck 22.5716 -3.71936 4.79737
head 10.0546 -1.97344 2.65215
rclavicle 8.69683e-015 7.15625e-015
rhumerus -33.0181 -18.6838 -77.2873
rradius 28.6206
rwrist 6.7131
rhand -12.3333 15.8741
rfingers 7.12502
rthumb 13.7358 -13.6526
lclavicle 8.69683e-015 7.15625e-015
lhumerus -31.0405 15.5788 81.7206
lradius 23.7483
lwrist -12.3564
lhand -15.165 24.4952
lfingers 7.12502
lthumb 11.0056 54.1867
rfemur -19.825 1.13763 19.1298
rtibia 63.9625
rfoot -7.27067 -3.74036
rtoes 3.18673
lfemur -11.7412 -0.380972 -27.8481
ltibia 27.8192
lfoot -12.0741 2.65575
ltoes 11.643
373
root -14.2894 17.3457 17.3316 -4.19271 -49.5078 4.46863
lowerback 6.9963 -0.262481 -3.28851
upperback 0.777461 -0.568304 1.34064
thorax -3.07453 -0.240007 3.29181
lowerneck -15.8166 -3.41759 -8.69279
upperneck 22.3957 -3.81005 4.80388
head 10.0025 -2.00497 2.62907
rclavicle -4.35338e-014 -1.59028e-015
rhumerus -33.1768 -18.9474 -77.2951
rradius 28.7944
rwrist 7.11194
rhand -11.3753 16.3287
rfingers 7.12502
rthumb 14.6589 -13.1331
lclavicle -4.35338e-014 -1.59028e-015
lhumerus -30.4752 14.8704 81.9446
lradius 23.8897
lwrist -12.0357
lhand -15.5737 24.1377
lfingers 7.12502
lthumb 10.6114 53.8498
rfemur -20.937 1.19624 18.7199
rtibia 63.5812
rfoot -7.60362 -4.28459
rtoes 3.66727
lfemur -11.4433 -0.413812 -28.2738
ltibia 28.1115
lfoot -12.4865 2.6175
ltoes 10.1828
374
root -14.3911 17.3312 17.4268 -4.19493 -49.5717 4.67163
lowerback 6.89058 -0.292859 -3.50556
upperback 0.695604 -0.62072 1.37501
thorax -3.09331 -0.26116 3.45446
lowerneck -15.511 -3.40417 -8.72684
upperneck 22.1706 -3.77324 4.68283
head 9.86066 -2.0058 2.59689
rclavicle 4.94477e-014 7.95139e-015
rhumerus -33.4054 -18.3817 -77.6404
rradius 29.2069
rwrist 5.78996
rhand -11.2475 15.7717
rfingers 7.12502
rthumb 14.782 -13.6811
lclavicle 4.94477e-014 7.95139e-015
lhumerus -30.2465 14.0334 82.2437
lradius 24.1114
lwrist -11.3521
lhand -16.2639 24.3922
lfingers 7.12502
lthumb 9.94558 54.1372
rfemur -22.1772 1.37975 18.552
rtibia 62.9376
rfoot -8.51608 -4.35522
rtoes 1.4917
lfemur -11.3026 -0.234994 -28.4636
ltibia 28.5519
lfoot -13.1657 2.72951
ltoes 9.11903
375
root -14.4902 17.3195 17.5235 -4.11883 -49.2048 4.51841
lowerback 7.07445 -0.467238 -3.45681
upperback 0.648272 -0.852534 1.4692
thorax -3.22472 -0.373067 3.55016
lowerneck -15.4107 -3.3481 -8.85686
upperneck 22.1757 -3.69 4.75657
head 9.8414 -1.97201 2.65679
rclavicle -7.71781e-014 2.38542e-015
rhumerus -33.5973 -18.8451 -77.3592
rradius 29.041
rwrist 5.7883
rhand -11.2666 16.0856
rfingers 7.12502
rthumb 14.7637 -13.3686
lclavicle -7.71781e-014 2.38542e-015
lhumerus -30.0198 13.2369 82.5408
lradius 24.356
lwrist -10.8951
lhand -16.1874 24.7986
lfingers 7.12502
lthumb 10.0193 54.5401
rfemur -23.0856 1.08165 18.605
rtibia 62.0867
rfoot -9.71641 -4.18715
rtoes 0.903913
lfemur -10.9383 -0.362752 -28.4096
ltibia 28.966
lfoot -13.9219 3.07862
ltoes 6.97637
